<svg width="1920" height="1080" viewBox="0 0 1920 1080" fill="none" xmlns="http://www.w3.org/2000/svg">
<g clip-path="url(#clip0_1822_56526)">
<rect width="1920" height="1080" fill="#1C0F70"/>
<path d="M708.467 408.474C12.4647 972.501 -574.942 614.254 -781.645 364.628L-935.543 50.048L1502.1 -1103.61L2210.5 556.945C1999.82 272.444 1404.47 -155.552 708.467 408.474Z" fill="url(#paint0_linear_1822_56526)" fill-opacity="0.3"/>
<path d="M708.467 408.474C12.4647 972.501 -574.942 614.254 -781.645 364.628L-935.543 50.048L1502.1 -1103.61L2210.5 556.945C1999.82 272.444 1404.47 -155.552 708.467 408.474Z" fill="url(#paint1_linear_1822_56526)" fill-opacity="0.3"/>
<path d="M1350.38 274.474C2046.39 838.5 2633.79 480.254 2840.5 230.627L2994.39 -83.9527L-494.042 -1180.94L-302.042 562.059C-91.3651 277.558 654.38 -289.553 1350.38 274.474Z" fill="url(#paint2_linear_1822_56526)" fill-opacity="0.3"/>
<path d="M1349.95 274.485C2045.95 838.512 2633.36 480.265 2840.06 230.639L2993.96 -83.9409L-494.478 -1180.93L-302.478 562.071C-91.8007 277.57 653.945 -289.541 1349.95 274.485Z" fill="url(#paint3_linear_1822_56526)" fill-opacity="0.3"/>
<path d="M111.761 1026V1006.36H114.676V1009.33H114.881C115.239 1008.36 115.886 1007.57 116.824 1006.96C117.761 1006.36 118.818 1006.06 119.994 1006.06C120.216 1006.06 120.493 1006.06 120.825 1006.07C121.158 1006.08 121.409 1006.09 121.58 1006.11V1009.18C121.477 1009.15 121.243 1009.11 120.876 1009.06C120.518 1009 120.139 1008.97 119.739 1008.97C118.784 1008.97 117.932 1009.17 117.182 1009.57C116.44 1009.96 115.852 1010.51 115.418 1011.21C114.991 1011.9 114.778 1012.69 114.778 1013.57V1026H111.761ZM131.036 1026.41C129.263 1026.41 127.707 1025.99 126.369 1025.14C125.04 1024.3 124 1023.12 123.25 1021.6C122.509 1020.09 122.138 1018.31 122.138 1016.28C122.138 1014.24 122.509 1012.45 123.25 1010.93C124 1009.4 125.04 1008.22 126.369 1007.37C127.707 1006.53 129.263 1006.11 131.036 1006.11C132.808 1006.11 134.359 1006.53 135.689 1007.37C137.027 1008.22 138.067 1009.4 138.808 1010.93C139.558 1012.45 139.933 1014.24 139.933 1016.28C139.933 1018.31 139.558 1020.09 138.808 1021.6C138.067 1023.12 137.027 1024.3 135.689 1025.14C134.359 1025.99 132.808 1026.41 131.036 1026.41ZM131.036 1023.7C132.382 1023.7 133.49 1023.35 134.359 1022.66C135.229 1021.97 135.872 1021.07 136.29 1019.94C136.707 1018.82 136.916 1017.6 136.916 1016.28C136.916 1014.97 136.707 1013.75 136.29 1012.62C135.872 1011.48 135.229 1010.57 134.359 1009.87C133.49 1009.17 132.382 1008.82 131.036 1008.82C129.689 1008.82 128.581 1009.17 127.712 1009.87C126.842 1010.57 126.199 1011.48 125.781 1012.62C125.364 1013.75 125.155 1014.97 125.155 1016.28C125.155 1017.6 125.364 1018.82 125.781 1019.94C126.199 1021.07 126.842 1021.97 127.712 1022.66C128.581 1023.35 129.689 1023.7 131.036 1023.7ZM146.056 1014.19V1026H143.039V1006.36H145.953V1009.43H146.209C146.669 1008.43 147.368 1007.63 148.306 1007.03C149.243 1006.41 150.453 1006.11 151.936 1006.11C153.266 1006.11 154.429 1006.38 155.426 1006.93C156.424 1007.46 157.199 1008.28 157.753 1009.38C158.307 1010.47 158.584 1011.85 158.584 1013.52V1026H155.567V1013.73C155.567 1012.18 155.167 1010.98 154.365 1010.12C153.564 1009.25 152.465 1008.82 151.067 1008.82C150.104 1008.82 149.243 1009.03 148.485 1009.44C147.735 1009.86 147.142 1010.47 146.708 1011.27C146.273 1012.07 146.056 1013.05 146.056 1014.19ZM170.012 1026.41C168.376 1026.41 166.931 1026 165.678 1025.17C164.425 1024.33 163.445 1023.16 162.738 1021.64C162.031 1020.12 161.677 1018.31 161.677 1016.23C161.677 1014.17 162.031 1012.38 162.738 1010.86C163.445 1009.35 164.43 1008.17 165.691 1007.35C166.952 1006.52 168.41 1006.11 170.063 1006.11C171.342 1006.11 172.352 1006.32 173.093 1006.75C173.843 1007.16 174.414 1007.64 174.806 1008.18C175.207 1008.71 175.518 1009.14 175.739 1009.48H175.995V999.818H179.012V1026H176.097V1022.98H175.739C175.518 1023.34 175.202 1023.79 174.793 1024.34C174.384 1024.87 173.8 1025.36 173.042 1025.78C172.283 1026.2 171.273 1026.41 170.012 1026.41ZM170.421 1023.7C171.631 1023.7 172.654 1023.38 173.489 1022.75C174.325 1022.11 174.96 1021.23 175.394 1020.11C175.829 1018.97 176.046 1017.66 176.046 1016.18C176.046 1014.72 175.833 1013.43 175.407 1012.33C174.981 1011.23 174.35 1010.37 173.515 1009.75C172.68 1009.13 171.648 1008.82 170.421 1008.82C169.143 1008.82 168.077 1009.15 167.225 1009.8C166.381 1010.45 165.746 1011.33 165.32 1012.45C164.903 1013.56 164.694 1014.8 164.694 1016.18C164.694 1017.58 164.907 1018.85 165.333 1019.99C165.768 1021.12 166.407 1022.03 167.251 1022.7C168.103 1023.37 169.16 1023.7 170.421 1023.7ZM194.707 1013.37V1016.18H183.252V1013.37H194.707ZM204.294 1026.46C203.049 1026.46 201.92 1026.23 200.906 1025.76C199.892 1025.28 199.086 1024.59 198.49 1023.7C197.893 1022.8 197.595 1021.7 197.595 1020.43C197.595 1019.3 197.816 1018.39 198.26 1017.69C198.703 1016.98 199.295 1016.43 200.037 1016.03C200.778 1015.63 201.596 1015.33 202.491 1015.13C203.395 1014.93 204.302 1014.77 205.214 1014.65C206.407 1014.49 207.375 1014.38 208.116 1014.3C208.866 1014.22 209.412 1014.08 209.752 1013.88C210.102 1013.68 210.277 1013.34 210.277 1012.86V1012.76C210.277 1011.49 209.931 1010.51 209.241 1009.82C208.559 1009.12 207.524 1008.77 206.135 1008.77C204.694 1008.77 203.565 1009.08 202.747 1009.71C201.929 1010.34 201.353 1011.02 201.021 1011.73L198.157 1010.71C198.669 1009.52 199.35 1008.59 200.203 1007.92C201.064 1007.25 202.001 1006.78 203.015 1006.52C204.038 1006.24 205.044 1006.11 206.032 1006.11C206.663 1006.11 207.387 1006.18 208.206 1006.34C209.032 1006.48 209.829 1006.79 210.596 1007.25C211.372 1007.71 212.015 1008.4 212.527 1009.33C213.038 1010.26 213.294 1011.5 213.294 1013.06V1026H210.277V1023.34H210.123C209.919 1023.77 209.578 1024.22 209.1 1024.71C208.623 1025.19 207.988 1025.61 207.196 1025.95C206.403 1026.29 205.436 1026.46 204.294 1026.46ZM204.754 1023.75C205.947 1023.75 206.953 1023.52 207.771 1023.05C208.598 1022.58 209.22 1021.97 209.637 1021.23C210.064 1020.49 210.277 1019.71 210.277 1018.89V1016.13C210.149 1016.28 209.868 1016.42 209.433 1016.55C209.007 1016.67 208.512 1016.78 207.95 1016.87C207.396 1016.96 206.855 1017.03 206.326 1017.1C205.806 1017.16 205.385 1017.21 205.061 1017.26C204.277 1017.36 203.544 1017.52 202.862 1017.75C202.189 1017.98 201.643 1018.31 201.225 1018.76C200.816 1019.21 200.612 1019.81 200.612 1020.58C200.612 1021.63 201 1022.42 201.775 1022.96C202.559 1023.49 203.552 1023.75 204.754 1023.75ZM229.675 1017.97V1006.36H232.692V1026H229.675V1022.68H229.471C229.011 1023.67 228.295 1024.52 227.323 1025.22C226.352 1025.91 225.124 1026.26 223.641 1026.26C222.414 1026.26 221.323 1025.99 220.369 1025.45C219.414 1024.9 218.664 1024.09 218.119 1023C217.573 1021.9 217.3 1020.51 217.3 1018.84V1006.36H220.317V1018.64C220.317 1020.07 220.718 1021.21 221.519 1022.06C222.329 1022.91 223.36 1023.34 224.613 1023.34C225.363 1023.34 226.126 1023.15 226.901 1022.77C227.685 1022.38 228.342 1021.79 228.87 1021C229.407 1020.21 229.675 1019.2 229.675 1017.97ZM245.258 1006.36V1008.92H235.082V1006.36H245.258ZM238.048 1001.66H241.065V1020.38C241.065 1021.23 241.189 1021.87 241.436 1022.29C241.691 1022.71 242.015 1022.99 242.407 1023.14C242.808 1023.27 243.23 1023.34 243.673 1023.34C244.005 1023.34 244.278 1023.32 244.491 1023.29C244.704 1023.25 244.875 1023.21 245.002 1023.19L245.616 1025.9C245.412 1025.97 245.126 1026.05 244.76 1026.13C244.393 1026.21 243.929 1026.26 243.366 1026.26C242.514 1026.26 241.679 1026.07 240.86 1025.71C240.051 1025.34 239.377 1024.78 238.841 1024.03C238.312 1023.28 238.048 1022.34 238.048 1021.19V1001.66ZM251.735 1014.19V1026H248.718V999.818H251.735V1009.43H251.991C252.451 1008.42 253.142 1007.61 254.062 1007.02C254.991 1006.41 256.227 1006.11 257.77 1006.11C259.108 1006.11 260.279 1006.38 261.285 1006.91C262.291 1007.44 263.071 1008.26 263.625 1009.36C264.187 1010.45 264.468 1011.84 264.468 1013.52V1026H261.451V1013.73C261.451 1012.17 261.047 1010.96 260.237 1010.11C259.436 1009.25 258.324 1008.82 256.9 1008.82C255.912 1008.82 255.025 1009.03 254.241 1009.44C253.466 1009.86 252.852 1010.47 252.4 1011.27C251.957 1012.07 251.735 1013.05 251.735 1014.19ZM267.925 1026V1023.7L279.073 1009.38V1009.18H268.283V1006.36H282.96V1008.77L272.119 1022.98V1023.19H283.317V1026H267.925ZM288.663 1026.2C288.033 1026.2 287.491 1025.98 287.04 1025.53C286.588 1025.08 286.362 1024.53 286.362 1023.9C286.362 1023.27 286.588 1022.73 287.04 1022.28C287.491 1021.83 288.033 1021.6 288.663 1021.6C289.294 1021.6 289.835 1021.83 290.287 1022.28C290.739 1022.73 290.964 1023.27 290.964 1023.9C290.964 1024.32 290.858 1024.7 290.645 1025.05C290.44 1025.4 290.163 1025.68 289.814 1025.9C289.473 1026.1 289.089 1026.2 288.663 1026.2ZM294.879 1026V1006.36H297.896V1026H294.879ZM296.413 1003.09C295.825 1003.09 295.317 1002.89 294.891 1002.49C294.474 1002.09 294.265 1001.61 294.265 1001.05C294.265 1000.48 294.474 1000 294.891 999.601C295.317 999.2 295.825 999 296.413 999C297.001 999 297.504 999.2 297.921 999.601C298.347 1000 298.56 1000.48 298.56 1001.05C298.56 1001.61 298.347 1002.09 297.921 1002.49C297.504 1002.89 297.001 1003.09 296.413 1003.09ZM309.899 1026.41C308.126 1026.41 306.571 1025.99 305.233 1025.14C303.903 1024.3 302.863 1023.12 302.113 1021.6C301.372 1020.09 301.001 1018.31 301.001 1016.28C301.001 1014.24 301.372 1012.45 302.113 1010.93C302.863 1009.4 303.903 1008.22 305.233 1007.37C306.571 1006.53 308.126 1006.11 309.899 1006.11C311.672 1006.11 313.223 1006.53 314.552 1007.37C315.89 1008.22 316.93 1009.4 317.672 1010.93C318.422 1012.45 318.797 1014.24 318.797 1016.28C318.797 1018.31 318.422 1020.09 317.672 1021.6C316.93 1023.12 315.89 1024.3 314.552 1025.14C313.223 1025.99 311.672 1026.41 309.899 1026.41ZM309.899 1023.7C311.245 1023.7 312.353 1023.35 313.223 1022.66C314.092 1021.97 314.735 1021.07 315.153 1019.94C315.571 1018.82 315.779 1017.6 315.779 1016.28C315.779 1014.97 315.571 1013.75 315.153 1012.62C314.735 1011.48 314.092 1010.57 313.223 1009.87C312.353 1009.17 311.245 1008.82 309.899 1008.82C308.552 1008.82 307.444 1009.17 306.575 1009.87C305.706 1010.57 305.062 1011.48 304.645 1012.62C304.227 1013.75 304.018 1014.97 304.018 1016.28C304.018 1017.6 304.227 1018.82 304.645 1019.94C305.062 1021.07 305.706 1021.97 306.575 1022.66C307.444 1023.35 308.552 1023.7 309.899 1023.7Z" fill="white"/>
<path d="M465.688 1033.77C464.23 1033.77 462.977 1033.59 461.929 1033.21C460.881 1032.84 460.007 1032.36 459.308 1031.75C458.618 1031.16 458.068 1030.52 457.659 1029.84L460.062 1028.15C460.335 1028.51 460.68 1028.91 461.098 1029.38C461.516 1029.84 462.087 1030.25 462.811 1030.59C463.544 1030.94 464.503 1031.11 465.688 1031.11C467.273 1031.11 468.581 1030.73 469.612 1029.96C470.643 1029.2 471.159 1027.99 471.159 1026.36V1022.37H470.903C470.682 1022.73 470.366 1023.17 469.957 1023.7C469.557 1024.22 468.977 1024.68 468.219 1025.09C467.469 1025.49 466.455 1025.69 465.176 1025.69C463.591 1025.69 462.168 1025.32 460.906 1024.57C459.653 1023.82 458.661 1022.73 457.928 1021.3C457.203 1019.86 456.841 1018.12 456.841 1016.08C456.841 1014.07 457.195 1012.32 457.902 1010.83C458.609 1009.33 459.594 1008.17 460.855 1007.35C462.116 1006.52 463.574 1006.11 465.227 1006.11C466.506 1006.11 467.52 1006.32 468.27 1006.75C469.028 1007.16 469.608 1007.64 470.009 1008.18C470.418 1008.71 470.733 1009.14 470.955 1009.48H471.261V1006.36H474.176V1026.56C474.176 1028.25 473.793 1029.62 473.026 1030.68C472.267 1031.74 471.244 1032.52 469.957 1033.02C468.679 1033.52 467.256 1033.77 465.688 1033.77ZM465.585 1022.98C466.795 1022.98 467.818 1022.71 468.653 1022.15C469.489 1021.6 470.124 1020.8 470.558 1019.76C470.993 1018.72 471.21 1017.48 471.21 1016.03C471.21 1014.61 470.997 1013.37 470.571 1012.28C470.145 1011.2 469.514 1010.35 468.679 1009.74C467.844 1009.12 466.813 1008.82 465.585 1008.82C464.307 1008.82 463.241 1009.14 462.389 1009.79C461.545 1010.44 460.911 1011.31 460.484 1012.4C460.067 1013.49 459.858 1014.7 459.858 1016.03C459.858 1017.39 460.071 1018.6 460.497 1019.65C460.932 1020.69 461.571 1021.5 462.415 1022.1C463.267 1022.69 464.324 1022.98 465.585 1022.98ZM478.199 1026V1006.36H481.216V1026H478.199ZM479.733 1003.09C479.145 1003.09 478.638 1002.89 478.212 1002.49C477.794 1002.09 477.585 1001.61 477.585 1001.05C477.585 1000.48 477.794 1000 478.212 999.601C478.638 999.2 479.145 999 479.733 999C480.321 999 480.824 999.2 481.241 999.601C481.668 1000 481.881 1000.48 481.881 1001.05C481.881 1001.61 481.668 1002.09 481.241 1002.49C480.824 1002.89 480.321 1003.09 479.733 1003.09ZM493.782 1006.36V1008.92H483.605V1006.36H493.782ZM486.571 1001.66H489.588V1020.38C489.588 1021.23 489.712 1021.87 489.959 1022.29C490.215 1022.71 490.539 1022.99 490.931 1023.14C491.331 1023.27 491.753 1023.34 492.196 1023.34C492.529 1023.34 492.801 1023.32 493.015 1023.29C493.228 1023.25 493.398 1023.21 493.526 1023.19L494.14 1025.9C493.935 1025.97 493.65 1026.05 493.283 1026.13C492.917 1026.21 492.452 1026.26 491.89 1026.26C491.037 1026.26 490.202 1026.07 489.384 1025.71C488.574 1025.34 487.901 1024.78 487.364 1024.03C486.836 1023.28 486.571 1022.34 486.571 1021.19V1001.66ZM500.259 1014.19V1026H497.242V999.818H500.259V1009.43H500.515C500.975 1008.42 501.665 1007.61 502.586 1007.02C503.515 1006.41 504.75 1006.11 506.293 1006.11C507.631 1006.11 508.803 1006.38 509.809 1006.91C510.814 1007.44 511.594 1008.26 512.148 1009.36C512.711 1010.45 512.992 1011.84 512.992 1013.52V1026H509.975V1013.73C509.975 1012.17 509.57 1010.96 508.76 1010.11C507.959 1009.25 506.847 1008.82 505.424 1008.82C504.435 1008.82 503.549 1009.03 502.765 1009.44C501.989 1009.86 501.375 1010.47 500.924 1011.27C500.48 1012.07 500.259 1013.05 500.259 1014.19ZM529.386 1017.97V1006.36H532.403V1026H529.386V1022.68H529.182C528.722 1023.67 528.006 1024.52 527.034 1025.22C526.063 1025.91 524.835 1026.26 523.352 1026.26C522.125 1026.26 521.034 1025.99 520.08 1025.45C519.125 1024.9 518.375 1024.09 517.83 1023C517.284 1021.9 517.011 1020.51 517.011 1018.84V1006.36H520.028V1018.64C520.028 1020.07 520.429 1021.21 521.23 1022.06C522.04 1022.91 523.071 1023.34 524.324 1023.34C525.074 1023.34 525.837 1023.15 526.612 1022.77C527.396 1022.38 528.053 1021.79 528.581 1021C529.118 1020.21 529.386 1019.2 529.386 1017.97ZM536.838 1026V999.818H539.855V1009.48H540.111C540.333 1009.14 540.64 1008.71 541.032 1008.18C541.432 1007.64 542.003 1007.16 542.745 1006.75C543.495 1006.32 544.509 1006.11 545.787 1006.11C547.441 1006.11 548.898 1006.52 550.159 1007.35C551.421 1008.17 552.405 1009.35 553.113 1010.86C553.82 1012.38 554.174 1014.17 554.174 1016.23C554.174 1018.31 553.82 1020.12 553.113 1021.64C552.405 1023.16 551.425 1024.33 550.172 1025.17C548.919 1026 547.475 1026.41 545.838 1026.41C544.577 1026.41 543.567 1026.2 542.809 1025.78C542.05 1025.36 541.466 1024.87 541.057 1024.34C540.648 1023.79 540.333 1023.34 540.111 1022.98H539.753V1026H536.838ZM539.804 1016.18C539.804 1017.66 540.022 1018.97 540.456 1020.11C540.891 1021.23 541.526 1022.11 542.361 1022.75C543.196 1023.38 544.219 1023.7 545.429 1023.7C546.691 1023.7 547.743 1023.37 548.587 1022.7C549.439 1022.03 550.078 1021.12 550.505 1019.99C550.939 1018.85 551.157 1017.58 551.157 1016.18C551.157 1014.8 550.944 1013.56 550.517 1012.45C550.1 1011.33 549.465 1010.45 548.613 1009.8C547.769 1009.15 546.708 1008.82 545.429 1008.82C544.202 1008.82 543.171 1009.13 542.336 1009.75C541.5 1010.37 540.87 1011.23 540.444 1012.33C540.017 1013.43 539.804 1014.72 539.804 1016.18ZM559.488 1026.2C558.857 1026.2 558.316 1025.98 557.864 1025.53C557.412 1025.08 557.186 1024.53 557.186 1023.9C557.186 1023.27 557.412 1022.73 557.864 1022.28C558.316 1021.83 558.857 1021.6 559.488 1021.6C560.118 1021.6 560.659 1021.83 561.111 1022.28C561.563 1022.73 561.789 1023.27 561.789 1023.9C561.789 1024.32 561.682 1024.7 561.469 1025.05C561.265 1025.4 560.988 1025.68 560.638 1025.9C560.297 1026.1 559.914 1026.2 559.488 1026.2ZM573.68 1026.41C571.839 1026.41 570.254 1025.97 568.924 1025.11C567.595 1024.24 566.572 1023.04 565.856 1021.51C565.14 1019.99 564.782 1018.24 564.782 1016.28C564.782 1014.29 565.149 1012.53 565.882 1011C566.623 1009.47 567.654 1008.27 568.975 1007.41C570.305 1006.54 571.856 1006.11 573.629 1006.11C575.01 1006.11 576.254 1006.36 577.362 1006.88C578.47 1007.39 579.377 1008.1 580.085 1009.02C580.792 1009.94 581.231 1011.02 581.402 1012.24H578.385C578.154 1011.35 577.643 1010.56 576.85 1009.87C576.066 1009.17 575.01 1008.82 573.68 1008.82C572.504 1008.82 571.473 1009.12 570.586 1009.74C569.708 1010.34 569.022 1011.2 568.528 1012.31C568.042 1013.41 567.799 1014.7 567.799 1016.18C567.799 1017.7 568.038 1019.02 568.515 1020.14C569.001 1021.27 569.683 1022.14 570.561 1022.77C571.447 1023.39 572.487 1023.7 573.68 1023.7C574.464 1023.7 575.176 1023.56 575.815 1023.29C576.454 1023.02 576.995 1022.62 577.439 1022.11C577.882 1021.6 578.197 1020.99 578.385 1020.27H581.402C581.231 1021.43 580.809 1022.48 580.136 1023.4C579.471 1024.33 578.589 1025.06 577.49 1025.6C576.399 1026.14 575.129 1026.41 573.68 1026.41ZM592.289 1026.41C590.517 1026.41 588.961 1025.99 587.623 1025.14C586.294 1024.3 585.254 1023.12 584.504 1021.6C583.762 1020.09 583.392 1018.31 583.392 1016.28C583.392 1014.24 583.762 1012.45 584.504 1010.93C585.254 1009.4 586.294 1008.22 587.623 1007.37C588.961 1006.53 590.517 1006.11 592.289 1006.11C594.062 1006.11 595.613 1006.53 596.943 1007.37C598.281 1008.22 599.321 1009.4 600.062 1010.93C600.812 1012.45 601.187 1014.24 601.187 1016.28C601.187 1018.31 600.812 1020.09 600.062 1021.6C599.321 1023.12 598.281 1024.3 596.943 1025.14C595.613 1025.99 594.062 1026.41 592.289 1026.41ZM592.289 1023.7C593.636 1023.7 594.744 1023.35 595.613 1022.66C596.483 1021.97 597.126 1021.07 597.544 1019.94C597.961 1018.82 598.17 1017.6 598.17 1016.28C598.17 1014.97 597.961 1013.75 597.544 1012.62C597.126 1011.48 596.483 1010.57 595.613 1009.87C594.744 1009.17 593.636 1008.82 592.289 1008.82C590.943 1008.82 589.835 1009.17 588.966 1009.87C588.096 1010.57 587.453 1011.48 587.035 1012.62C586.618 1013.75 586.409 1014.97 586.409 1016.28C586.409 1017.6 586.618 1018.82 587.035 1019.94C587.453 1021.07 588.096 1021.97 588.966 1022.66C589.835 1023.35 590.943 1023.7 592.289 1023.7ZM604.293 1026V1006.36H607.207V1009.43H607.463C607.872 1008.38 608.533 1007.57 609.445 1006.99C610.357 1006.4 611.452 1006.11 612.73 1006.11C614.026 1006.11 615.104 1006.4 615.964 1006.99C616.834 1007.57 617.511 1008.38 617.997 1009.43H618.202C618.705 1008.42 619.459 1007.61 620.464 1007.02C621.47 1006.41 622.676 1006.11 624.082 1006.11C625.838 1006.11 627.274 1006.66 628.391 1007.76C629.507 1008.85 630.065 1010.55 630.065 1012.86V1026H627.048V1012.86C627.048 1011.41 626.652 1010.37 625.859 1009.75C625.067 1009.13 624.134 1008.82 623.06 1008.82C621.679 1008.82 620.609 1009.24 619.851 1010.07C619.092 1010.9 618.713 1011.95 618.713 1013.22V1026H615.645V1012.55C615.645 1011.43 615.283 1010.54 614.558 1009.85C613.834 1009.16 612.901 1008.82 611.759 1008.82C610.974 1008.82 610.241 1009.03 609.56 1009.44C608.886 1009.86 608.341 1010.44 607.923 1011.18C607.514 1011.92 607.31 1012.76 607.31 1013.73V1026H604.293ZM643.337 998.591L634.9 1029.94H632.138L640.576 998.591H643.337ZM645.414 1026V1006.36H648.328V1009.33H648.533C648.891 1008.36 649.539 1007.57 650.476 1006.96C651.414 1006.36 652.471 1006.06 653.647 1006.06C653.868 1006.06 654.145 1006.06 654.478 1006.07C654.81 1006.08 655.061 1006.09 655.232 1006.11V1009.18C655.13 1009.15 654.895 1009.11 654.529 1009.06C654.171 1009 653.792 1008.97 653.391 1008.97C652.436 1008.97 651.584 1009.17 650.834 1009.57C650.093 1009.96 649.505 1010.51 649.07 1011.21C648.644 1011.9 648.431 1012.69 648.431 1013.57V1026H645.414ZM664.688 1026.41C662.915 1026.41 661.36 1025.99 660.022 1025.14C658.692 1024.3 657.652 1023.12 656.902 1021.6C656.161 1020.09 655.79 1018.31 655.79 1016.28C655.79 1014.24 656.161 1012.45 656.902 1010.93C657.652 1009.4 658.692 1008.22 660.022 1007.37C661.36 1006.53 662.915 1006.11 664.688 1006.11C666.461 1006.11 668.012 1006.53 669.341 1007.37C670.679 1008.22 671.719 1009.4 672.461 1010.93C673.211 1012.45 673.586 1014.24 673.586 1016.28C673.586 1018.31 673.211 1020.09 672.461 1021.6C671.719 1023.12 670.679 1024.3 669.341 1025.14C668.012 1025.99 666.461 1026.41 664.688 1026.41ZM664.688 1023.7C666.034 1023.7 667.142 1023.35 668.012 1022.66C668.881 1021.97 669.525 1021.07 669.942 1019.94C670.36 1018.82 670.569 1017.6 670.569 1016.28C670.569 1014.97 670.36 1013.75 669.942 1012.62C669.525 1011.48 668.881 1010.57 668.012 1009.87C667.142 1009.17 666.034 1008.82 664.688 1008.82C663.341 1008.82 662.233 1009.17 661.364 1009.87C660.495 1010.57 659.851 1011.48 659.434 1012.62C659.016 1013.75 658.807 1014.97 658.807 1016.28C658.807 1017.6 659.016 1018.82 659.434 1019.94C659.851 1021.07 660.495 1021.97 661.364 1022.66C662.233 1023.35 663.341 1023.7 664.688 1023.7ZM679.708 1014.19V1026H676.691V1006.36H679.606V1009.43H679.862C680.322 1008.43 681.021 1007.63 681.958 1007.03C682.896 1006.41 684.106 1006.11 685.589 1006.11C686.918 1006.11 688.082 1006.38 689.079 1006.93C690.076 1007.46 690.852 1008.28 691.406 1009.38C691.96 1010.47 692.237 1011.85 692.237 1013.52V1026H689.219V1013.73C689.219 1012.18 688.819 1010.98 688.018 1010.12C687.217 1009.25 686.117 1008.82 684.719 1008.82C683.756 1008.82 682.896 1009.03 682.137 1009.44C681.387 1009.86 680.795 1010.47 680.36 1011.27C679.925 1012.07 679.708 1013.05 679.708 1014.19ZM703.664 1026.41C702.028 1026.41 700.583 1026 699.331 1025.17C698.078 1024.33 697.098 1023.16 696.39 1021.64C695.683 1020.12 695.329 1018.31 695.329 1016.23C695.329 1014.17 695.683 1012.38 696.39 1010.86C697.098 1009.35 698.082 1008.17 699.343 1007.35C700.605 1006.52 702.062 1006.11 703.716 1006.11C704.994 1006.11 706.004 1006.32 706.745 1006.75C707.495 1007.16 708.066 1007.64 708.458 1008.18C708.859 1008.71 709.17 1009.14 709.392 1009.48H709.647V999.818H712.664V1026H709.75V1022.98H709.392C709.17 1023.34 708.855 1023.79 708.446 1024.34C708.037 1024.87 707.453 1025.36 706.694 1025.78C705.936 1026.2 704.926 1026.41 703.664 1026.41ZM704.074 1023.7C705.284 1023.7 706.306 1023.38 707.142 1022.75C707.977 1022.11 708.612 1021.23 709.047 1020.11C709.481 1018.97 709.699 1017.66 709.699 1016.18C709.699 1014.72 709.485 1013.43 709.059 1012.33C708.633 1011.23 708.002 1010.37 707.167 1009.75C706.332 1009.13 705.301 1008.82 704.074 1008.82C702.795 1008.82 701.73 1009.15 700.877 1009.8C700.034 1010.45 699.399 1011.33 698.973 1012.45C698.555 1013.56 698.346 1014.8 698.346 1016.18C698.346 1017.58 698.559 1018.85 698.985 1019.99C699.42 1021.12 700.059 1022.03 700.903 1022.7C701.755 1023.37 702.812 1023.7 704.074 1023.7ZM728.359 1013.37V1016.18H716.904V1013.37H728.359ZM737.946 1026.46C736.702 1026.46 735.572 1026.23 734.558 1025.76C733.544 1025.28 732.739 1024.59 732.142 1023.7C731.545 1022.8 731.247 1021.7 731.247 1020.43C731.247 1019.3 731.469 1018.39 731.912 1017.69C732.355 1016.98 732.947 1016.43 733.689 1016.03C734.43 1015.63 735.249 1015.33 736.143 1015.13C737.047 1014.93 737.955 1014.77 738.866 1014.65C740.06 1014.49 741.027 1014.38 741.768 1014.3C742.518 1014.22 743.064 1014.08 743.405 1013.88C743.754 1013.68 743.929 1013.34 743.929 1012.86V1012.76C743.929 1011.49 743.584 1010.51 742.893 1009.82C742.212 1009.12 741.176 1008.77 739.787 1008.77C738.347 1008.77 737.217 1009.08 736.399 1009.71C735.581 1010.34 735.006 1011.02 734.673 1011.73L731.81 1010.71C732.321 1009.52 733.003 1008.59 733.855 1007.92C734.716 1007.25 735.653 1006.78 736.668 1006.52C737.69 1006.24 738.696 1006.11 739.685 1006.11C740.315 1006.11 741.04 1006.18 741.858 1006.34C742.685 1006.48 743.482 1006.79 744.249 1007.25C745.024 1007.71 745.668 1008.4 746.179 1009.33C746.69 1010.26 746.946 1011.5 746.946 1013.06V1026H743.929V1023.34H743.776C743.571 1023.77 743.23 1024.22 742.753 1024.71C742.276 1025.19 741.641 1025.61 740.848 1025.95C740.055 1026.29 739.088 1026.46 737.946 1026.46ZM738.406 1023.75C739.599 1023.75 740.605 1023.52 741.423 1023.05C742.25 1022.58 742.872 1021.97 743.29 1021.23C743.716 1020.49 743.929 1019.71 743.929 1018.89V1016.13C743.801 1016.28 743.52 1016.42 743.085 1016.55C742.659 1016.67 742.165 1016.78 741.602 1016.87C741.048 1016.96 740.507 1017.03 739.979 1017.1C739.459 1017.16 739.037 1017.21 738.713 1017.26C737.929 1017.36 737.196 1017.52 736.514 1017.75C735.841 1017.98 735.295 1018.31 734.878 1018.76C734.469 1019.21 734.264 1019.81 734.264 1020.58C734.264 1021.63 734.652 1022.42 735.428 1022.96C736.212 1023.49 737.205 1023.75 738.406 1023.75ZM763.328 1017.97V1006.36H766.345V1026H763.328V1022.68H763.123C762.663 1023.67 761.947 1024.52 760.975 1025.22C760.004 1025.91 758.777 1026.26 757.294 1026.26C756.066 1026.26 754.975 1025.99 754.021 1025.45C753.066 1024.9 752.316 1024.09 751.771 1023C751.225 1021.9 750.953 1020.51 750.953 1018.84V1006.36H753.97V1018.64C753.97 1020.07 754.37 1021.21 755.172 1022.06C755.981 1022.91 757.012 1023.34 758.265 1023.34C759.015 1023.34 759.778 1023.15 760.554 1022.77C761.338 1022.38 761.994 1021.79 762.522 1021C763.059 1020.21 763.328 1019.2 763.328 1017.97ZM778.911 1006.36V1008.92H768.734V1006.36H778.911ZM771.7 1001.66H774.717V1020.38C774.717 1021.23 774.841 1021.87 775.088 1022.29C775.344 1022.71 775.668 1022.99 776.06 1023.14C776.46 1023.27 776.882 1023.34 777.325 1023.34C777.658 1023.34 777.93 1023.32 778.143 1023.29C778.357 1023.25 778.527 1023.21 778.655 1023.19L779.268 1025.9C779.064 1025.97 778.778 1026.05 778.412 1026.13C778.045 1026.21 777.581 1026.26 777.018 1026.26C776.166 1026.26 775.331 1026.07 774.513 1025.71C773.703 1025.34 773.03 1024.78 772.493 1024.03C771.964 1023.28 771.7 1022.34 771.7 1021.19V1001.66ZM785.388 1014.19V1026H782.371V999.818H785.388V1009.43H785.643C786.104 1008.42 786.794 1007.61 787.714 1007.02C788.643 1006.41 789.879 1006.11 791.422 1006.11C792.76 1006.11 793.932 1006.38 794.938 1006.91C795.943 1007.44 796.723 1008.26 797.277 1009.36C797.839 1010.45 798.121 1011.84 798.121 1013.52V1026H795.104V1013.73C795.104 1012.17 794.699 1010.96 793.889 1010.11C793.088 1009.25 791.976 1008.82 790.553 1008.82C789.564 1008.82 788.678 1009.03 787.893 1009.44C787.118 1009.86 786.504 1010.47 786.053 1011.27C785.609 1012.07 785.388 1013.05 785.388 1014.19ZM801.578 1026V1023.7L812.725 1009.38V1009.18H801.936V1006.36H816.612V1008.77L805.771 1022.98V1023.19H816.97V1026H801.578ZM829.373 998.591L820.935 1029.94H818.174L826.611 998.591H829.373ZM831.449 1026V1006.36H834.364V1009.33H834.568C834.926 1008.36 835.574 1007.57 836.511 1006.96C837.449 1006.36 838.506 1006.06 839.682 1006.06C839.903 1006.06 840.18 1006.06 840.513 1006.07C840.845 1006.08 841.097 1006.09 841.267 1006.11V1009.18C841.165 1009.15 840.93 1009.11 840.564 1009.06C840.206 1009 839.827 1008.97 839.426 1008.97C838.472 1008.97 837.619 1009.17 836.869 1009.57C836.128 1009.96 835.54 1010.51 835.105 1011.21C834.679 1011.9 834.466 1012.69 834.466 1013.57V1026H831.449ZM850.723 1026.41C848.95 1026.41 847.395 1025.99 846.057 1025.14C844.727 1024.3 843.688 1023.12 842.938 1021.6C842.196 1020.09 841.825 1018.31 841.825 1016.28C841.825 1014.24 842.196 1012.45 842.938 1010.93C843.688 1009.4 844.727 1008.22 846.057 1007.37C847.395 1006.53 848.95 1006.11 850.723 1006.11C852.496 1006.11 854.047 1006.53 855.376 1007.37C856.714 1008.22 857.754 1009.4 858.496 1010.93C859.246 1012.45 859.621 1014.24 859.621 1016.28C859.621 1018.31 859.246 1020.09 858.496 1021.6C857.754 1023.12 856.714 1024.3 855.376 1025.14C854.047 1025.99 852.496 1026.41 850.723 1026.41ZM850.723 1023.7C852.07 1023.7 853.178 1023.35 854.047 1022.66C854.916 1021.97 855.56 1021.07 855.977 1019.94C856.395 1018.82 856.604 1017.6 856.604 1016.28C856.604 1014.97 856.395 1013.75 855.977 1012.62C855.56 1011.48 854.916 1010.57 854.047 1009.87C853.178 1009.17 852.07 1008.82 850.723 1008.82C849.376 1008.82 848.268 1009.17 847.399 1009.87C846.53 1010.57 845.886 1011.48 845.469 1012.62C845.051 1013.75 844.842 1014.97 844.842 1016.28C844.842 1017.6 845.051 1018.82 845.469 1019.94C845.886 1021.07 846.53 1021.97 847.399 1022.66C848.268 1023.35 849.376 1023.7 850.723 1023.7ZM865.743 1014.19V1026H862.726V1006.36H865.641V1009.43H865.897C866.357 1008.43 867.056 1007.63 867.993 1007.03C868.931 1006.41 870.141 1006.11 871.624 1006.11C872.953 1006.11 874.117 1006.38 875.114 1006.93C876.111 1007.46 876.887 1008.28 877.441 1009.38C877.995 1010.47 878.272 1011.85 878.272 1013.52V1026H875.255V1013.73C875.255 1012.18 874.854 1010.98 874.053 1010.12C873.252 1009.25 872.152 1008.82 870.755 1008.82C869.792 1008.82 868.931 1009.03 868.172 1009.44C867.422 1009.86 866.83 1010.47 866.395 1011.27C865.961 1012.07 865.743 1013.05 865.743 1014.19ZM889.7 1026.41C888.063 1026.41 886.619 1026 885.366 1025.17C884.113 1024.33 883.133 1023.16 882.425 1021.64C881.718 1020.12 881.364 1018.31 881.364 1016.23C881.364 1014.17 881.718 1012.38 882.425 1010.86C883.133 1009.35 884.117 1008.17 885.379 1007.35C886.64 1006.52 888.097 1006.11 889.751 1006.11C891.029 1006.11 892.039 1006.32 892.781 1006.75C893.531 1007.16 894.102 1007.64 894.494 1008.18C894.894 1008.71 895.205 1009.14 895.427 1009.48H895.683V999.818H898.7V1026H895.785V1022.98H895.427C895.205 1023.34 894.89 1023.79 894.481 1024.34C894.072 1024.87 893.488 1025.36 892.729 1025.78C891.971 1026.2 890.961 1026.41 889.7 1026.41ZM890.109 1023.7C891.319 1023.7 892.342 1023.38 893.177 1022.75C894.012 1022.11 894.647 1021.23 895.082 1020.11C895.516 1018.97 895.734 1017.66 895.734 1016.18C895.734 1014.72 895.521 1013.43 895.094 1012.33C894.668 1011.23 894.038 1010.37 893.202 1009.75C892.367 1009.13 891.336 1008.82 890.109 1008.82C888.83 1008.82 887.765 1009.15 886.913 1009.8C886.069 1010.45 885.434 1011.33 885.008 1012.45C884.59 1013.56 884.381 1014.8 884.381 1016.18C884.381 1017.58 884.594 1018.85 885.021 1019.99C885.455 1021.12 886.094 1022.03 886.938 1022.7C887.79 1023.37 888.847 1023.7 890.109 1023.7Z" fill="white"/>
<path d="M409.205 1025.72C400.487 1028.36 400.487 1021.32 397 1020.44M421.41 1031V1024.19C421.475 1023.35 421.363 1022.51 421.08 1021.71C420.798 1020.92 420.352 1020.2 419.771 1019.6C425.246 1018.98 431 1016.89 431 1007.28C431 1004.82 430.063 1002.46 428.385 1000.68C429.18 998.532 429.123 996.156 428.227 994.047C428.227 994.047 426.17 993.432 421.41 996.652C417.414 995.559 413.201 995.559 409.205 996.652C404.446 993.432 402.388 994.048 402.388 994.048C401.494 996.158 401.44 998.533 402.237 1000.68C400.546 1002.47 399.608 1004.86 399.621 1007.33C399.621 1016.87 405.369 1018.96 410.85 1019.65C410.276 1020.25 409.834 1020.96 409.552 1021.74C409.269 1022.53 409.153 1023.36 409.211 1024.19V1031" stroke="white" stroke-width="1.5" stroke-linecap="round" stroke-linejoin="round"/>
<path d="M68.9569 1019.86L64.8667 1023.95C64.2223 1024.59 63.4573 1025.1 62.6154 1025.45C61.7735 1025.8 60.8711 1025.98 59.9598 1025.98C58.1194 1025.98 56.3544 1025.25 55.053 1023.95C53.7516 1022.65 53.0205 1020.88 53.0205 1019.04C53.0205 1017.2 53.7516 1015.43 55.053 1014.13L59.1432 1010.04" stroke="white" stroke-width="2" stroke-linecap="round" stroke-linejoin="round"/>
<path d="M73.8566 1014.96L77.9469 1010.87C79.2482 1009.57 79.9794 1007.8 79.9794 1005.96C79.9794 1004.12 79.2482 1002.35 77.9469 1001.05C76.6455 999.752 74.8805 999.021 73.04 999.021C71.1996 999.021 69.4346 999.752 68.1332 1001.05L64.043 1005.14" stroke="white" stroke-width="2" stroke-linecap="round" stroke-linejoin="round"/>
<path d="M68.9569 1019.86L64.8667 1023.95C64.2223 1024.59 63.4573 1025.1 62.6154 1025.45C61.7735 1025.8 60.8711 1025.98 59.9598 1025.98C58.1194 1025.98 56.3544 1025.25 55.053 1023.95C53.7516 1022.65 53.0205 1020.88 53.0205 1019.04C53.0205 1017.2 53.7516 1015.43 55.053 1014.13L59.1432 1010.04" stroke="white" stroke-width="2" stroke-linecap="round" stroke-linejoin="round"/>
<path d="M73.8566 1014.96L77.9469 1010.87C79.2482 1009.57 79.9794 1007.8 79.9794 1005.96C79.9794 1004.12 79.2482 1002.35 77.9469 1001.05C76.6455 999.752 74.8805 999.021 73.04 999.021C71.1996 999.021 69.4346 999.752 68.1332 1001.05L64.043 1005.14" stroke="white" stroke-width="2" stroke-linecap="round" stroke-linejoin="round"/>
<path d="M1830.94 979.388C1811.31 979.388 1795.39 995.306 1795.39 1014.94C1795.39 1034.58 1811.31 1050.5 1830.94 1050.5C1850.58 1050.5 1866.5 1034.58 1866.5 1014.94C1866.5 995.306 1850.38 979.388 1830.94 979.388ZM1830.94 1042.44C1815.65 1042.44 1803.45 1030.04 1803.45 1014.94C1803.45 999.854 1815.85 987.45 1830.94 987.45C1846.04 987.45 1858.44 999.854 1858.44 1014.94C1858.44 1030.04 1846.04 1042.44 1830.94 1042.44Z" fill="url(#paint4_linear_1822_56526)"/>
<path d="M1830.94 1039.96C1844.76 1039.96 1855.96 1028.76 1855.96 1014.95C1855.96 1001.13 1844.76 989.932 1830.94 989.932C1817.13 989.932 1805.93 1001.13 1805.93 1014.95C1805.93 1028.76 1817.13 1039.96 1830.94 1039.96Z" fill="white"/>
<path d="M1830.94 1042.44C1846.13 1042.44 1858.44 1030.13 1858.44 1014.95C1858.44 999.76 1846.13 987.45 1830.94 987.45C1815.76 987.45 1803.45 999.76 1803.45 1014.95C1803.45 1030.13 1815.76 1042.44 1830.94 1042.44Z" fill="white"/>
<path d="M1842.73 992.826C1840.45 991.586 1837.97 990.759 1835.29 990.139C1835.08 992.413 1833.01 994.273 1830.74 994.273C1828.26 994.273 1826.4 992.413 1826.19 990.139C1823.5 990.759 1821.02 991.586 1818.75 992.826C1820.2 998.201 1824.95 1002.13 1830.74 1002.13C1836.53 1002.13 1841.49 998.201 1842.73 992.826Z" fill="url(#paint5_linear_1822_56526)"/>
<path d="M1851.41 1014.33C1851.41 1012.05 1853.27 1009.98 1855.55 1009.78C1854.93 1007.09 1854.1 1004.61 1852.86 1002.33C1847.69 1003.78 1843.76 1008.54 1843.76 1014.12C1843.76 1019.91 1847.9 1024.87 1853.27 1026.11C1854.51 1023.83 1855.34 1021.35 1855.75 1018.67C1853.27 1018.67 1851.41 1016.81 1851.41 1014.33Z" fill="url(#paint6_linear_1822_56526)"/>
<path d="M1818.13 1014.33C1818.13 1008.74 1814.2 1003.99 1809.03 1002.54C1807.79 1004.82 1806.76 1007.3 1806.34 1009.98C1808.62 1010.19 1810.48 1012.05 1810.48 1014.53C1810.48 1017.01 1808.62 1018.87 1806.34 1019.08C1806.76 1021.77 1807.58 1024.25 1808.82 1026.52C1813.99 1025.08 1818.13 1020.32 1818.13 1014.33Z" fill="url(#paint7_linear_1822_56526)"/>
<path d="M1818.95 1036.86C1821.23 1038.1 1823.71 1038.92 1826.4 1039.54C1826.6 1037.27 1828.67 1035.41 1830.94 1035.41C1833.43 1035.41 1835.29 1037.27 1835.49 1039.54C1838.18 1038.92 1840.66 1038.1 1842.93 1036.86C1841.49 1031.48 1836.73 1027.55 1830.94 1027.55C1825.16 1027.55 1820.19 1031.69 1818.95 1036.86Z" fill="url(#paint8_linear_1822_56526)"/>
<path d="M1836.94 1017.63L1836.32 1016.19L1836.11 1015.98H1835.91C1835.91 1015.98 1835.91 1015.98 1835.7 1015.98C1835.7 1015.98 1835.7 1015.98 1835.7 1015.57V1011.64C1835.7 1010.19 1835.7 1007.5 1833.01 1007.5C1832.19 1007.5 1831.15 1007.71 1830.12 1008.33V1008.12V1008.33H1829.91L1828.88 1007.71H1828.67H1828.46L1824.95 1009.57L1824.74 1009.78L1824.95 1009.98L1825.57 1011.43L1825.78 1011.64L1825.98 1011.43L1826.4 1011.22C1826.6 1011.22 1826.6 1011.02 1826.81 1011.02V1023.42V1023.63H1827.02H1829.7H1829.91V1023.42V1011.22C1830.95 1010.6 1831.57 1010.6 1831.77 1010.6C1831.98 1010.6 1832.39 1010.6 1832.39 1011.84V1015.77C1832.39 1018.67 1833.84 1019.08 1834.67 1019.08C1835.29 1019.08 1836.11 1018.67 1836.94 1018.05V1017.63Z" fill="url(#paint9_linear_1822_56526)"/>
</g>
<defs>
<linearGradient id="paint0_linear_1822_56526" x1="706.318" y1="337.947" x2="470.523" y2="-144.038" gradientUnits="userSpaceOnUse">
<stop stop-color="#513DE4"/>
<stop offset="1" stop-color="#267BF9"/>
</linearGradient>
<linearGradient id="paint1_linear_1822_56526" x1="706.318" y1="337.947" x2="470.523" y2="-144.038" gradientUnits="userSpaceOnUse">
<stop stop-color="#513DE4"/>
<stop offset="1" stop-color="#267BF9"/>
</linearGradient>
<linearGradient id="paint2_linear_1822_56526" x1="1352.53" y1="203.952" x2="1588.33" y2="-278.032" gradientUnits="userSpaceOnUse">
<stop stop-color="#513DE4"/>
<stop offset="1" stop-color="#267BF9"/>
</linearGradient>
<linearGradient id="paint3_linear_1822_56526" x1="1352.1" y1="203.964" x2="1587.89" y2="-278.021" gradientUnits="userSpaceOnUse">
<stop stop-color="#513DE4"/>
<stop offset="1" stop-color="#267BF9"/>
</linearGradient>
<linearGradient id="paint4_linear_1822_56526" x1="1857.06" y1="1038.53" x2="1803.44" y2="990.096" gradientUnits="userSpaceOnUse">
<stop stop-color="#00DEE7"/>
<stop offset="0.0751114" stop-color="#05CCEC"/>
<stop offset="0.2244" stop-color="#139FFA"/>
<stop offset="0.2719" stop-color="#188FFF"/>
<stop offset="0.401" stop-color="#1D87FD"/>
<stop offset="0.5988" stop-color="#2C72F6"/>
<stop offset="0.8394" stop-color="#444FEA"/>
<stop offset="0.9605" stop-color="#523BE4"/>
</linearGradient>
<linearGradient id="paint5_linear_1822_56526" x1="1842.05" y1="998.824" x2="1818.12" y2="992.088" gradientUnits="userSpaceOnUse">
<stop stop-color="#00DEE7"/>
<stop offset="0.0215771" stop-color="#02D7E9"/>
<stop offset="0.1529" stop-color="#0EB0F5"/>
<stop offset="0.2577" stop-color="#1598FC"/>
<stop offset="0.3223" stop-color="#188FFF"/>
<stop offset="0.4419" stop-color="#1D87FD"/>
<stop offset="0.6253" stop-color="#2C72F6"/>
<stop offset="0.8482" stop-color="#444FEA"/>
<stop offset="0.9605" stop-color="#523BE4"/>
</linearGradient>
<linearGradient id="paint6_linear_1822_56526" x1="1860.89" y1="1020.1" x2="1845.4" y2="1010.04" gradientUnits="userSpaceOnUse">
<stop offset="0.1199" stop-color="#00DEE7"/>
<stop offset="0.1691" stop-color="#07C5EE"/>
<stop offset="0.241" stop-color="#10A8F7"/>
<stop offset="0.3027" stop-color="#1695FD"/>
<stop offset="0.3469" stop-color="#188FFF"/>
<stop offset="0.6204" stop-color="#3368F2"/>
<stop offset="0.9022" stop-color="#523BE4"/>
</linearGradient>
<linearGradient id="paint7_linear_1822_56526" x1="1815.8" y1="1022.68" x2="1805.19" y2="1005.52" gradientUnits="userSpaceOnUse">
<stop stop-color="#00DEE7"/>
<stop offset="0.0232223" stop-color="#02D7E9"/>
<stop offset="0.1645" stop-color="#0EB0F5"/>
<stop offset="0.2773" stop-color="#1598FC"/>
<stop offset="0.3469" stop-color="#188FFF"/>
<stop offset="0.6204" stop-color="#3368F2"/>
<stop offset="0.9022" stop-color="#523BE4"/>
</linearGradient>
<linearGradient id="paint8_linear_1822_56526" x1="1843.62" y1="1033.57" x2="1819.46" y2="1033.57" gradientUnits="userSpaceOnUse">
<stop stop-color="#00DEE7"/>
<stop offset="0.0232223" stop-color="#02D7E9"/>
<stop offset="0.1645" stop-color="#0EB0F5"/>
<stop offset="0.2773" stop-color="#1598FC"/>
<stop offset="0.3469" stop-color="#188FFF"/>
<stop offset="0.6204" stop-color="#3368F2"/>
<stop offset="0.9022" stop-color="#523BE4"/>
</linearGradient>
<linearGradient id="paint9_linear_1822_56526" x1="1824.69" y1="1015.61" x2="1837.01" y2="1015.61" gradientUnits="userSpaceOnUse">
<stop offset="0.3469" stop-color="#188FFF"/>
<stop offset="0.6204" stop-color="#3368F2"/>
<stop offset="0.9022" stop-color="#523BE4"/>
</linearGradient>
<clipPath id="clip0_1822_56526">
<rect width="1920" height="1080" fill="white"/>
</clipPath>
</defs>
</svg>
