<svg width="1920" height="1080" viewBox="0 0 1920 1080" fill="none" xmlns="http://www.w3.org/2000/svg">
<g clip-path="url(#clip0_1031_57347)">
<rect width="1920" height="1080" fill="#1C0F70"/>
<path d="M1030.49 679.086C1726.49 115.06 2313.9 473.306 2520.6 722.933L2674.5 1037.51L236.859 2191.17L-471.544 530.616C-260.867 815.117 334.488 1243.11 1030.49 679.086Z" fill="url(#paint0_linear_1031_57347)" fill-opacity="0.3"/>
<path d="M1030.49 679.086C1726.49 115.06 2313.9 473.306 2520.6 722.933L2674.5 1037.51L236.859 2191.17L-471.544 530.616C-260.867 815.117 334.488 1243.11 1030.49 679.086Z" fill="url(#paint1_linear_1031_57347)" fill-opacity="0.3"/>
<path d="M388.574 813.087C-307.428 249.06 -894.835 607.307 -1101.54 856.933L-1255.44 1171.51L2233 2268.5L2041 525.501C1830.32 810.002 1084.58 1377.11 388.574 813.087Z" fill="url(#paint2_linear_1031_57347)" fill-opacity="0.3"/>
<path d="M389.01 813.075C-306.993 249.049 -894.4 607.295 -1101.1 856.922L-1255 1171.5L2233.44 2268.49L2041.44 525.489C1830.76 809.991 1085.01 1377.1 389.01 813.075Z" fill="url(#paint3_linear_1031_57347)" fill-opacity="0.3"/>
<path d="M684.5 282C542.276 282 427 397.276 427 539.5C427 681.724 542.276 797 684.5 797C826.724 797 942 681.724 942 539.5C942 397.276 825.227 282 684.5 282ZM684.5 738.613C573.715 738.613 485.387 648.788 485.387 539.5C485.387 430.212 575.212 340.387 684.5 340.387C793.788 340.387 883.613 430.212 883.613 539.5C883.613 648.788 793.788 738.613 684.5 738.613Z" fill="url(#paint4_linear_1031_57347)"/>
<path d="M684.5 720.652C784.545 720.652 865.648 639.549 865.648 539.504C865.648 439.458 784.545 358.355 684.5 358.355C584.454 358.355 503.352 439.458 503.352 539.504C503.352 639.549 584.454 720.652 684.5 720.652Z" fill="white"/>
<path d="M684.497 738.615C794.464 738.615 883.61 649.469 883.61 539.502C883.61 429.535 794.464 340.389 684.497 340.389C574.53 340.389 485.384 429.535 485.384 539.502C485.384 649.469 574.53 738.615 684.497 738.615Z" fill="white"/>
<path d="M769.833 379.321C753.365 370.338 735.4 364.35 715.937 359.858C714.44 376.326 699.469 389.8 683.001 389.8C665.036 389.8 651.562 376.326 650.065 359.858C630.603 364.35 612.638 370.338 596.17 379.321C606.65 418.245 641.083 446.69 683.001 446.69C724.92 446.69 760.85 418.245 769.833 379.321Z" fill="url(#paint5_linear_1031_57347)"/>
<path d="M832.711 535.015C832.711 518.547 846.185 503.576 862.653 502.079C858.162 482.617 852.173 464.652 843.191 448.184C805.764 458.663 777.319 493.096 777.319 533.518C777.319 575.436 807.261 611.367 846.185 620.349C855.168 603.881 861.156 585.916 864.15 566.454C846.185 566.454 832.711 552.98 832.711 535.015Z" fill="url(#paint6_linear_1031_57347)"/>
<path d="M591.677 535.011C591.677 494.59 563.232 460.156 525.804 449.677C516.822 466.145 509.336 484.11 506.342 503.572C522.81 505.069 536.284 518.543 536.284 536.508C536.284 554.473 522.81 567.947 506.342 569.444C509.336 588.906 515.325 606.872 524.307 623.34C561.735 612.86 591.677 578.427 591.677 535.011Z" fill="url(#paint7_linear_1031_57347)"/>
<path d="M597.668 698.189C614.136 707.172 632.101 713.16 651.563 717.652C653.06 701.184 668.031 687.71 684.499 687.71C702.464 687.71 715.938 701.184 717.435 717.652C736.898 713.16 754.863 707.172 771.331 698.189C760.851 659.265 726.418 630.82 684.499 630.82C642.581 630.82 606.651 660.762 597.668 698.189Z" fill="url(#paint8_linear_1031_57347)"/>
<path d="M727.917 558.966L723.426 548.486L721.929 546.989H720.431C720.431 546.989 720.431 546.989 718.934 546.989C718.934 546.989 718.934 546.989 718.934 543.995V515.55C718.934 505.071 718.934 485.608 699.472 485.608C693.484 485.608 685.998 487.105 678.513 491.597V490.1V491.597H677.016L669.53 487.105H668.033H666.536L641.085 500.579L639.588 502.076L641.085 503.574L645.577 514.053L647.074 515.55L648.571 514.053L651.565 512.556C653.062 512.556 653.062 511.059 654.559 511.059V600.885V602.382H656.056H675.519H677.016V600.885V512.556C684.501 508.065 688.992 508.065 690.49 508.065C691.987 508.065 694.981 508.065 694.981 517.047V545.492C694.981 566.451 705.46 569.446 711.449 569.446C715.94 569.446 721.929 566.451 727.917 561.96V558.966Z" fill="url(#paint9_linear_1031_57347)"/>
<path d="M999.916 622.516V473.352H1059.02C1070.35 473.352 1079.98 475.412 1088.02 479.41C1096.07 483.409 1102.16 489.104 1106.43 496.375C1110.69 503.645 1112.76 512.248 1112.76 522.063C1112.76 532 1110.57 540.482 1106.3 547.631C1102.04 554.78 1095.82 560.233 1087.66 563.989C1079.49 567.746 1069.74 569.685 1058.17 569.685H1018.56V544.359H1053.05C1059.14 544.359 1064.14 543.511 1068.16 541.936C1072.18 540.361 1075.11 537.816 1077.18 534.544C1079.13 531.273 1080.1 527.153 1080.1 522.184C1080.1 517.216 1079.13 513.096 1077.18 509.704C1075.23 506.311 1072.18 503.766 1068.16 501.949C1064.14 500.131 1059.02 499.283 1052.93 499.283H1031.6V622.637H999.916V622.516ZM1080.83 554.659L1118.13 622.516H1083.15L1046.71 554.659H1080.83Z" fill="white"/>
<path d="M1183.57 624.698C1172.23 624.698 1162.36 622.275 1154.07 617.428C1145.79 612.581 1139.45 605.795 1134.94 597.192C1130.43 588.589 1128.24 578.41 1128.24 567.02C1128.24 555.508 1130.43 545.33 1134.94 536.726C1139.45 528.002 1145.79 521.337 1154.07 516.49C1162.36 511.643 1172.23 509.22 1183.57 509.22C1194.9 509.22 1204.77 511.643 1213.06 516.49C1221.34 521.337 1227.68 528.123 1232.19 536.726C1236.7 545.33 1238.89 555.508 1238.89 567.02C1238.89 578.531 1236.7 588.589 1232.19 597.192C1227.68 605.795 1221.34 612.581 1213.06 617.428C1204.77 622.275 1194.9 624.698 1183.57 624.698ZM1161.26 495.406C1157.12 495.406 1153.46 493.952 1150.42 491.044C1147.37 488.136 1145.91 484.622 1145.91 480.623C1145.91 476.503 1147.37 472.989 1150.42 470.081C1153.46 467.173 1157 465.84 1161.26 465.84C1165.53 465.84 1169.06 467.294 1172.11 470.081C1175.03 472.989 1176.5 476.382 1176.5 480.623C1176.5 484.622 1175.03 488.136 1172.11 491.044C1169.06 493.952 1165.41 495.406 1161.26 495.406ZM1183.69 600.706C1188.81 600.706 1193.19 599.252 1196.61 596.344C1200.02 593.436 1202.7 589.437 1204.53 584.348C1206.35 579.258 1207.21 573.442 1207.21 566.899C1207.21 560.355 1206.35 554.539 1204.53 549.45C1202.7 544.36 1200.14 540.362 1196.61 537.332C1193.19 534.424 1188.81 532.849 1183.69 532.849C1178.45 532.849 1174.06 534.303 1170.53 537.332C1166.99 540.24 1164.31 544.36 1162.6 549.45C1160.78 554.539 1159.92 560.355 1159.92 566.899C1159.92 573.442 1160.78 579.258 1162.6 584.348C1164.43 589.437 1166.99 593.436 1170.53 596.344C1174.06 599.252 1178.45 600.706 1183.69 600.706ZM1205.99 495.406C1201.85 495.406 1198.19 493.952 1195.14 491.044C1192.1 488.136 1190.63 484.622 1190.63 480.623C1190.63 476.503 1192.1 472.989 1195.14 470.081C1198.19 467.173 1201.72 465.84 1205.99 465.84C1210.25 465.84 1213.79 467.294 1216.83 470.081C1219.76 472.989 1221.22 476.382 1221.22 480.623C1221.22 484.622 1219.76 488.136 1216.83 491.044C1213.91 493.952 1210.25 495.406 1205.99 495.406Z" fill="white"/>
<path d="M1290.44 557.81V622.517H1259.24V510.674H1288.98V530.425H1290.32C1292.76 523.882 1297.02 518.792 1302.87 514.915C1308.72 511.158 1315.79 509.22 1324.2 509.22C1332 509.22 1338.82 510.916 1344.67 514.309C1350.52 517.702 1355.03 522.549 1358.2 528.85C1361.37 535.151 1363.07 542.664 1363.07 551.267V622.517H1331.88V556.841C1331.88 550.055 1330.17 544.602 1326.64 540.846C1323.1 536.968 1318.11 535.03 1311.89 535.03C1307.75 535.03 1303.97 535.878 1300.8 537.696C1297.63 539.513 1295.07 542.058 1293.37 545.572C1291.42 548.965 1290.56 553.085 1290.44 557.81Z" fill="white"/>
<path d="M1429 624.337C1420.47 624.337 1412.67 622.155 1405.85 617.793C1398.9 613.431 1393.42 606.888 1389.4 598.405C1385.37 589.802 1383.3 579.26 1383.3 566.9C1383.3 554.056 1385.37 543.393 1389.52 534.911C1393.66 526.428 1399.14 520.006 1406.09 515.765C1413.04 511.524 1420.59 509.343 1428.88 509.343C1435.22 509.343 1440.46 510.434 1444.6 512.493C1448.87 514.553 1452.28 517.219 1454.84 520.37C1457.4 523.52 1459.47 526.55 1460.81 529.579H1461.78V473.476H1492.86V622.64H1462.15V604.707H1460.81C1459.35 607.857 1457.27 610.886 1454.59 613.916C1451.91 616.945 1448.5 619.49 1444.23 621.428C1440.09 623.367 1434.97 624.337 1429 624.337ZM1438.87 599.617C1443.87 599.617 1448.13 598.284 1451.67 595.497C1455.2 592.71 1457.88 588.954 1459.71 583.986C1461.54 579.018 1462.51 573.201 1462.51 566.537C1462.51 559.872 1461.54 554.056 1459.71 549.209C1457.88 544.362 1455.2 540.485 1451.67 537.819C1448.13 535.153 1443.87 533.82 1438.87 533.82C1433.75 533.82 1429.37 535.153 1425.95 537.94C1422.42 540.727 1419.74 544.604 1418.03 549.451C1416.21 554.298 1415.35 559.993 1415.35 566.537C1415.35 573.08 1416.33 578.775 1418.16 583.743C1419.98 588.712 1422.66 592.589 1426.08 595.376C1429.37 598.284 1433.75 599.617 1438.87 599.617Z" fill="white"/>
</g>
<defs>
<linearGradient id="paint0_linear_1031_57347" x1="1032.64" y1="749.614" x2="1268.44" y2="1231.6" gradientUnits="userSpaceOnUse">
<stop stop-color="#513DE4"/>
<stop offset="1" stop-color="#267BF9"/>
</linearGradient>
<linearGradient id="paint1_linear_1031_57347" x1="1032.64" y1="749.614" x2="1268.44" y2="1231.6" gradientUnits="userSpaceOnUse">
<stop stop-color="#513DE4"/>
<stop offset="1" stop-color="#267BF9"/>
</linearGradient>
<linearGradient id="paint2_linear_1031_57347" x1="386.426" y1="883.609" x2="150.631" y2="1365.59" gradientUnits="userSpaceOnUse">
<stop stop-color="#513DE4"/>
<stop offset="1" stop-color="#267BF9"/>
</linearGradient>
<linearGradient id="paint3_linear_1031_57347" x1="386.861" y1="883.597" x2="151.066" y2="1365.58" gradientUnits="userSpaceOnUse">
<stop stop-color="#513DE4"/>
<stop offset="1" stop-color="#267BF9"/>
</linearGradient>
<linearGradient id="paint4_linear_1031_57347" x1="873.622" y1="710.264" x2="485.348" y2="359.545" gradientUnits="userSpaceOnUse">
<stop stop-color="#00DEE7"/>
<stop offset="0.0751114" stop-color="#05CCEC"/>
<stop offset="0.2244" stop-color="#139FFA"/>
<stop offset="0.2719" stop-color="#188FFF"/>
<stop offset="0.401" stop-color="#1D87FD"/>
<stop offset="0.5988" stop-color="#2C72F6"/>
<stop offset="0.8394" stop-color="#444FEA"/>
<stop offset="0.9605" stop-color="#523BE4"/>
</linearGradient>
<linearGradient id="paint5_linear_1031_57347" x1="764.925" y1="422.756" x2="591.641" y2="373.977" gradientUnits="userSpaceOnUse">
<stop stop-color="#00DEE7"/>
<stop offset="0.0215771" stop-color="#02D7E9"/>
<stop offset="0.1529" stop-color="#0EB0F5"/>
<stop offset="0.2577" stop-color="#1598FC"/>
<stop offset="0.3223" stop-color="#188FFF"/>
<stop offset="0.4419" stop-color="#1D87FD"/>
<stop offset="0.6253" stop-color="#2C72F6"/>
<stop offset="0.8482" stop-color="#444FEA"/>
<stop offset="0.9605" stop-color="#523BE4"/>
</linearGradient>
<linearGradient id="paint6_linear_1031_57347" x1="901.332" y1="576.811" x2="789.204" y2="503.995" gradientUnits="userSpaceOnUse">
<stop offset="0.1199" stop-color="#00DEE7"/>
<stop offset="0.1691" stop-color="#07C5EE"/>
<stop offset="0.241" stop-color="#10A8F7"/>
<stop offset="0.3027" stop-color="#1695FD"/>
<stop offset="0.3469" stop-color="#188FFF"/>
<stop offset="0.6204" stop-color="#3368F2"/>
<stop offset="0.9022" stop-color="#523BE4"/>
</linearGradient>
<linearGradient id="paint7_linear_1031_57347" x1="574.836" y1="595.533" x2="497.987" y2="471.218" gradientUnits="userSpaceOnUse">
<stop stop-color="#00DEE7"/>
<stop offset="0.0232223" stop-color="#02D7E9"/>
<stop offset="0.1645" stop-color="#0EB0F5"/>
<stop offset="0.2773" stop-color="#1598FC"/>
<stop offset="0.3469" stop-color="#188FFF"/>
<stop offset="0.6204" stop-color="#3368F2"/>
<stop offset="0.9022" stop-color="#523BE4"/>
</linearGradient>
<linearGradient id="paint8_linear_1031_57347" x1="776.306" y1="674.416" x2="601.301" y2="674.416" gradientUnits="userSpaceOnUse">
<stop stop-color="#00DEE7"/>
<stop offset="0.0232223" stop-color="#02D7E9"/>
<stop offset="0.1645" stop-color="#0EB0F5"/>
<stop offset="0.2773" stop-color="#1598FC"/>
<stop offset="0.3469" stop-color="#188FFF"/>
<stop offset="0.6204" stop-color="#3368F2"/>
<stop offset="0.9022" stop-color="#523BE4"/>
</linearGradient>
<linearGradient id="paint9_linear_1031_57347" x1="639.205" y1="544.329" x2="728.454" y2="544.329" gradientUnits="userSpaceOnUse">
<stop offset="0.3469" stop-color="#188FFF"/>
<stop offset="0.6204" stop-color="#3368F2"/>
<stop offset="0.9022" stop-color="#523BE4"/>
</linearGradient>
<clipPath id="clip0_1031_57347">
<rect width="1920" height="1080" fill="white"/>
</clipPath>
</defs>
</svg>
