<svg width="512" height="489" viewBox="0 0 512 489" fill="none" xmlns="http://www.w3.org/2000/svg">
<path d="M80.5996 461.9V355.4H122.6C130.7 355.4 137.5 356.8 143.2 359.7C148.9 362.6 153.3 366.6 156.3 371.8C159.3 377 160.8 383.2 160.8 390.2C160.8 397.3 159.3 403.4 156.2 408.4C153.1 413.5 148.7 417.4 143 420.1C137.3 422.8 130.2 424.2 122.1 424.2H93.9996V406.1H118.5C122.8 406.1 126.4 405.5 129.2 404.3C132 403.1 134.2 401.4 135.6 399C137 396.6 137.7 393.7 137.7 390.2C137.7 386.7 137 383.7 135.6 381.3C134.2 378.9 132.1 377 129.2 375.8C126.3 374.5 122.7 373.9 118.4 373.9H103.2V462.1H80.5996V461.9ZM138.2 413.4L164.7 461.9H139.8L113.9 413.4H138.2Z" fill="#1E1E1E"/>
<path d="M211.1 463.5C203 463.5 196 461.8 190.2 458.3C184.3 454.8 179.8 450 176.6 443.8C173.4 437.6 171.8 430.4 171.8 422.2C171.8 413.9 173.4 406.7 176.6 400.5C179.8 394.3 184.3 389.5 190.2 386C196.1 382.5 203.1 380.8 211.1 380.8C219.2 380.8 226.2 382.5 232 386C237.9 389.5 242.4 394.3 245.6 400.5C248.8 406.7 250.4 413.9 250.4 422.2C250.4 430.4 248.8 437.6 245.6 443.8C242.4 450 237.9 454.8 232 458.3C226.2 461.8 219.2 463.5 211.1 463.5ZM195.3 371.1C192.3 371.1 189.7 370.1 187.6 368C185.4 365.9 184.4 363.4 184.4 360.5C184.4 357.6 185.5 355.1 187.6 353C189.7 351 192.3 349.9 195.3 349.9C198.3 349.9 200.9 350.9 203 353C205.1 355.1 206.1 357.5 206.1 360.5C206.1 363.4 205.1 365.9 203 368C200.9 370.1 198.3 371.1 195.3 371.1ZM211.3 446.3C215 446.3 218.1 445.3 220.5 443.2C223 441.1 224.8 438.2 226.1 434.6C227.4 431 228 426.8 228 422.2C228 417.5 227.4 413.4 226.1 409.8C224.8 406.2 223 403.3 220.5 401.2C218 399.1 215 398 211.3 398C207.6 398 204.5 399.1 202 401.2C199.5 403.3 197.6 406.2 196.3 409.8C195 413.4 194.4 417.6 194.4 422.2C194.4 426.8 195 431 196.3 434.6C197.6 438.2 199.5 441.1 202 443.2C204.4 445.3 207.5 446.3 211.3 446.3ZM227.1 371.1C224.1 371.1 221.5 370.1 219.4 368C217.2 365.9 216.2 363.4 216.2 360.5C216.2 357.6 217.3 355.1 219.4 353C221.6 351 224.1 349.9 227.1 349.9C230.1 349.9 232.7 350.9 234.8 353C236.9 355.1 237.9 357.5 237.9 360.5C237.9 363.4 236.9 365.9 234.8 368C232.7 370 230.1 371.1 227.1 371.1Z" fill="#1E1E1E"/>
<path d="M287.1 415.7V461.9H265V382H286.1V396.1H287C288.8 391.5 291.7 387.8 295.9 385C300.1 382.3 305.1 380.9 311 380.9C316.6 380.9 321.4 382.1 325.5 384.5C329.6 386.9 332.8 390.4 335.1 394.9C337.4 399.4 338.5 404.7 338.5 411V461.9H316.3V415C316.3 410.1 315.1 406.3 312.6 403.5C310.1 400.7 306.6 399.4 302.1 399.4C299.1 399.4 296.5 400 294.2 401.3C291.9 402.6 290.2 404.4 288.9 406.9C287.8 409.4 287.2 412.3 287.1 415.7Z" fill="#1E1E1E"/>
<path d="M385.5 463.2C379.4 463.2 373.9 461.6 369 458.5C364.1 455.4 360.2 450.7 357.3 444.6C354.4 438.5 353 431 353 422C353 412.8 354.5 405.2 357.4 399.1C360.3 393 364.3 388.4 369.2 385.4C374.1 382.4 379.5 380.8 385.4 380.8C389.9 380.8 393.6 381.6 396.6 383.1C399.6 384.6 402 386.5 403.9 388.7C405.8 390.9 407.2 393.1 408.1 395.3H408.8V355.2H431V461.8H409.1V449H408.2C407.2 451.2 405.7 453.4 403.8 455.6C401.9 457.8 399.5 459.6 396.5 461C393.5 462.5 389.8 463.2 385.5 463.2ZM392.6 445.6C396.2 445.6 399.2 444.6 401.7 442.7C404.2 440.7 406.1 438 407.4 434.5C408.7 431 409.4 426.8 409.4 422.1C409.4 417.3 408.7 413.2 407.4 409.7C406.1 406.2 404.2 403.5 401.7 401.6C399.2 399.7 396.2 398.7 392.6 398.7C389 398.7 385.9 399.7 383.4 401.7C380.9 403.7 379 406.4 377.7 409.9C376.4 413.4 375.8 417.5 375.8 422.1C375.8 426.7 376.5 430.8 377.8 434.4C379.1 438 381 440.7 383.5 442.7C385.9 444.6 388.9 445.6 392.6 445.6Z" fill="#1E1E1E"/>
<path d="M256 27C174.256 27 108 93.2558 108 175C108 256.744 174.256 323 256 323C337.744 323 404 256.744 404 175C404 93.2558 336.884 27 256 27ZM256 289.442C192.326 289.442 141.558 237.814 141.558 175C141.558 112.186 193.186 60.5581 256 60.5581C318.814 60.5581 370.442 112.186 370.442 175C370.442 237.814 318.814 289.442 256 289.442Z" fill="url(#paint0_linear_1018_56281)"/>
<path d="M255.999 279.118C313.501 279.118 360.115 232.503 360.115 175.002C360.115 117.5 313.501 70.8853 255.999 70.8853C198.497 70.8853 151.883 117.5 151.883 175.002C151.883 232.503 198.497 279.118 255.999 279.118Z" fill="white"/>
<path d="M255.999 289.442C319.203 289.442 370.44 238.204 370.44 175C370.44 111.795 319.203 60.5581 255.999 60.5581C192.794 60.5581 141.557 111.795 141.557 175C141.557 238.204 192.794 289.442 255.999 289.442Z" fill="white"/>
<path d="M305.044 82.9341C295.579 77.7713 285.254 74.3294 274.068 71.748C273.207 81.2132 264.603 88.9573 255.137 88.9573C244.812 88.9573 237.068 81.2132 236.207 71.748C225.021 74.3294 214.696 77.7713 205.23 82.9341C211.254 105.306 231.044 121.655 255.137 121.655C279.23 121.655 299.882 105.306 305.044 82.9341Z" fill="url(#paint1_linear_1018_56281)"/>
<path d="M341.188 172.421C341.188 162.956 348.932 154.351 358.397 153.49C355.816 142.304 352.374 131.979 347.211 122.514C325.699 128.537 309.351 148.328 309.351 171.56C309.351 195.653 326.56 216.304 348.932 221.467C354.095 212.002 357.537 201.676 359.258 190.49C348.932 190.49 341.188 182.746 341.188 172.421Z" fill="url(#paint2_linear_1018_56281)"/>
<path d="M202.649 172.42C202.649 149.187 186.3 129.397 164.789 123.374C159.626 132.839 155.323 143.164 153.603 154.35C163.068 155.211 170.812 162.955 170.812 173.281C170.812 183.606 163.068 191.35 153.603 192.211C155.323 203.397 158.765 213.722 163.928 223.187C185.44 217.164 202.649 197.374 202.649 172.42Z" fill="url(#paint3_linear_1018_56281)"/>
<path d="M206.094 266.209C215.559 271.372 225.884 274.813 237.07 277.395C237.931 267.93 246.536 260.185 256.001 260.185C266.326 260.185 274.07 267.93 274.931 277.395C286.117 274.813 296.443 271.372 305.908 266.209C299.884 243.837 280.094 227.488 256.001 227.488C231.908 227.488 211.257 244.697 206.094 266.209Z" fill="url(#paint4_linear_1018_56281)"/>
<path d="M280.956 186.187L278.375 180.164L277.514 179.303H276.654C276.654 179.303 276.654 179.303 275.793 179.303C275.793 179.303 275.793 179.303 275.793 177.583V161.234C275.793 155.21 275.793 144.024 264.607 144.024C261.165 144.024 256.863 144.885 252.561 147.466V146.606V147.466H251.7L247.398 144.885H246.537H245.677L231.049 152.629L230.188 153.49L231.049 154.35L233.63 160.373L234.491 161.234L235.351 160.373L237.072 159.513C237.933 159.513 237.933 158.652 238.793 158.652V210.28V211.141H239.654H250.84H251.7V210.28V159.513C256.002 156.931 258.584 156.931 259.444 156.931C260.305 156.931 262.026 156.931 262.026 162.094V178.443C262.026 190.49 268.049 192.21 271.491 192.21C274.072 192.21 277.514 190.49 280.956 187.908V186.187Z" fill="url(#paint5_linear_1018_56281)"/>
<defs>
<linearGradient id="paint0_linear_1018_56281" x1="364.699" y1="273.148" x2="141.536" y2="71.5695" gradientUnits="userSpaceOnUse">
<stop stop-color="#00DEE7"/>
<stop offset="0.0751114" stop-color="#05CCEC"/>
<stop offset="0.2244" stop-color="#139FFA"/>
<stop offset="0.2719" stop-color="#188FFF"/>
<stop offset="0.401" stop-color="#1D87FD"/>
<stop offset="0.5988" stop-color="#2C72F6"/>
<stop offset="0.8394" stop-color="#444FEA"/>
<stop offset="0.9605" stop-color="#523BE4"/>
</linearGradient>
<linearGradient id="paint1_linear_1018_56281" x1="302.224" y1="107.899" x2="202.628" y2="79.8631" gradientUnits="userSpaceOnUse">
<stop stop-color="#00DEE7"/>
<stop offset="0.0215771" stop-color="#02D7E9"/>
<stop offset="0.1529" stop-color="#0EB0F5"/>
<stop offset="0.2577" stop-color="#1598FC"/>
<stop offset="0.3223" stop-color="#188FFF"/>
<stop offset="0.4419" stop-color="#1D87FD"/>
<stop offset="0.6253" stop-color="#2C72F6"/>
<stop offset="0.8482" stop-color="#444FEA"/>
<stop offset="0.9605" stop-color="#523BE4"/>
</linearGradient>
<linearGradient id="paint2_linear_1018_56281" x1="380.628" y1="196.443" x2="316.182" y2="154.592" gradientUnits="userSpaceOnUse">
<stop offset="0.1199" stop-color="#00DEE7"/>
<stop offset="0.1691" stop-color="#07C5EE"/>
<stop offset="0.241" stop-color="#10A8F7"/>
<stop offset="0.3027" stop-color="#1695FD"/>
<stop offset="0.3469" stop-color="#188FFF"/>
<stop offset="0.6204" stop-color="#3368F2"/>
<stop offset="0.9022" stop-color="#523BE4"/>
</linearGradient>
<linearGradient id="paint3_linear_1018_56281" x1="192.97" y1="207.205" x2="148.8" y2="135.755" gradientUnits="userSpaceOnUse">
<stop stop-color="#00DEE7"/>
<stop offset="0.0232223" stop-color="#02D7E9"/>
<stop offset="0.1645" stop-color="#0EB0F5"/>
<stop offset="0.2773" stop-color="#1598FC"/>
<stop offset="0.3469" stop-color="#188FFF"/>
<stop offset="0.6204" stop-color="#3368F2"/>
<stop offset="0.9022" stop-color="#523BE4"/>
</linearGradient>
<linearGradient id="paint4_linear_1018_56281" x1="308.767" y1="252.545" x2="208.182" y2="252.545" gradientUnits="userSpaceOnUse">
<stop stop-color="#00DEE7"/>
<stop offset="0.0232223" stop-color="#02D7E9"/>
<stop offset="0.1645" stop-color="#0EB0F5"/>
<stop offset="0.2773" stop-color="#1598FC"/>
<stop offset="0.3469" stop-color="#188FFF"/>
<stop offset="0.6204" stop-color="#3368F2"/>
<stop offset="0.9022" stop-color="#523BE4"/>
</linearGradient>
<linearGradient id="paint5_linear_1018_56281" x1="229.968" y1="177.774" x2="281.265" y2="177.774" gradientUnits="userSpaceOnUse">
<stop offset="0.3469" stop-color="#188FFF"/>
<stop offset="0.6204" stop-color="#3368F2"/>
<stop offset="0.9022" stop-color="#523BE4"/>
</linearGradient>
</defs>
</svg>
