<svg width="351" height="437" viewBox="0 0 351 437" fill="none" xmlns="http://www.w3.org/2000/svg">
<path d="M0.599609 434.9V328.4H42.5996C50.6996 328.4 57.4996 329.8 63.1996 332.7C68.8996 335.6 73.2996 339.6 76.2996 344.8C79.2996 350 80.7996 356.2 80.7996 363.2C80.7996 370.3 79.2996 376.4 76.1996 381.4C73.0996 386.5 68.6996 390.4 62.9996 393.1C57.2996 395.8 50.1996 397.2 42.0996 397.2H13.9996V379.1H38.4996C42.7996 379.1 46.3996 378.5 49.1996 377.3C51.9996 376.1 54.1996 374.4 55.5996 372C56.9996 369.6 57.6996 366.7 57.6996 363.2C57.6996 359.7 56.9996 356.7 55.5996 354.3C54.1996 351.9 52.0996 350 49.1996 348.8C46.2996 347.5 42.6996 346.9 38.3996 346.9H23.1996V435.1H0.599609V434.9ZM58.1996 386.4L84.6996 434.9H59.7996L33.8996 386.4H58.1996Z" fill="white"/>
<path d="M131.1 436.5C123 436.5 116 434.8 110.2 431.3C104.3 427.8 99.7996 423 96.5996 416.8C93.3996 410.6 91.7996 403.4 91.7996 395.2C91.7996 386.9 93.3996 379.7 96.5996 373.5C99.7996 367.3 104.3 362.5 110.2 359C116.1 355.5 123.1 353.8 131.1 353.8C139.2 353.8 146.2 355.5 152 359C157.9 362.5 162.4 367.3 165.6 373.5C168.8 379.7 170.4 386.9 170.4 395.2C170.4 403.4 168.8 410.6 165.6 416.8C162.4 423 157.9 427.8 152 431.3C146.2 434.8 139.2 436.5 131.1 436.5ZM115.3 344.1C112.3 344.1 109.7 343.1 107.6 341C105.4 338.9 104.4 336.4 104.4 333.5C104.4 330.6 105.5 328.1 107.6 326C109.7 324 112.3 322.9 115.3 322.9C118.3 322.9 120.9 323.9 123 326C125.1 328.1 126.1 330.5 126.1 333.5C126.1 336.4 125.1 338.9 123 341C120.9 343.1 118.3 344.1 115.3 344.1ZM131.3 419.3C135 419.3 138.1 418.3 140.5 416.2C143 414.1 144.8 411.2 146.1 407.6C147.4 404 148 399.8 148 395.2C148 390.5 147.4 386.4 146.1 382.8C144.8 379.2 143 376.3 140.5 374.2C138 372.1 135 371 131.3 371C127.6 371 124.5 372.1 122 374.2C119.5 376.3 117.6 379.2 116.3 382.8C115 386.4 114.4 390.6 114.4 395.2C114.4 399.8 115 404 116.3 407.6C117.6 411.2 119.5 414.1 122 416.2C124.4 418.3 127.5 419.3 131.3 419.3ZM147.1 344.1C144.1 344.1 141.5 343.1 139.4 341C137.2 338.9 136.2 336.4 136.2 333.5C136.2 330.6 137.3 328.1 139.4 326C141.6 324 144.1 322.9 147.1 322.9C150.1 322.9 152.7 323.9 154.8 326C156.9 328.1 157.9 330.5 157.9 333.5C157.9 336.4 156.9 338.9 154.8 341C152.7 343 150.1 344.1 147.1 344.1Z" fill="white"/>
<path d="M207.1 388.7V434.9H185V355H206.1V369.1H207C208.8 364.5 211.7 360.8 215.9 358C220.1 355.3 225.1 353.9 231 353.9C236.6 353.9 241.4 355.1 245.5 357.5C249.6 359.9 252.8 363.4 255.1 367.9C257.4 372.4 258.5 377.7 258.5 384V434.9H236.3V388C236.3 383.1 235.1 379.3 232.6 376.5C230.1 373.7 226.6 372.4 222.1 372.4C219.1 372.4 216.5 373 214.2 374.3C211.9 375.6 210.2 377.4 208.9 379.9C207.8 382.4 207.2 385.3 207.1 388.7Z" fill="white"/>
<path d="M305.5 436.2C299.4 436.2 293.9 434.6 289 431.5C284.1 428.4 280.2 423.7 277.3 417.6C274.4 411.5 273 404 273 395C273 385.8 274.5 378.2 277.4 372.1C280.3 366 284.3 361.4 289.2 358.4C294.1 355.4 299.5 353.8 305.4 353.8C309.9 353.8 313.6 354.6 316.6 356.1C319.6 357.6 322 359.5 323.9 361.7C325.8 363.9 327.2 366.1 328.1 368.3H328.8V328.2H351V434.8H329.1V422H328.2C327.2 424.2 325.7 426.4 323.8 428.6C321.9 430.8 319.5 432.6 316.5 434C313.5 435.5 309.8 436.2 305.5 436.2ZM312.6 418.6C316.2 418.6 319.2 417.6 321.7 415.7C324.2 413.7 326.1 411 327.4 407.5C328.7 404 329.4 399.8 329.4 395.1C329.4 390.3 328.7 386.2 327.4 382.7C326.1 379.2 324.2 376.5 321.7 374.6C319.2 372.7 316.2 371.7 312.6 371.7C309 371.7 305.9 372.7 303.4 374.7C300.9 376.7 299 379.4 297.7 382.9C296.4 386.4 295.8 390.5 295.8 395.1C295.8 399.7 296.5 403.8 297.8 407.4C299.1 411 301 413.7 303.5 415.7C305.9 417.6 308.9 418.6 312.6 418.6Z" fill="white"/>
<path d="M176 0C94.2558 0 28 66.2558 28 148C28 229.744 94.2558 296 176 296C257.744 296 324 229.744 324 148C324 66.2558 256.884 0 176 0ZM176 262.442C112.326 262.442 61.5581 210.814 61.5581 148C61.5581 85.186 113.186 33.5581 176 33.5581C238.814 33.5581 290.442 85.186 290.442 148C290.442 210.814 238.814 262.442 176 262.442Z" fill="url(#paint0_linear_1_2)"/>
<path d="M176 252.118C233.501 252.118 280.116 205.503 280.116 148.001C280.116 90.4997 233.501 43.8852 176 43.8852C118.498 43.8852 71.8833 90.4997 71.8833 148.001C71.8833 205.503 118.498 252.118 176 252.118Z" fill="white"/>
<path d="M175.999 262.442C239.203 262.442 290.44 211.204 290.44 148C290.44 84.7955 239.203 33.5581 175.999 33.5581C112.794 33.5581 61.5567 84.7955 61.5567 148C61.5567 211.204 112.794 262.442 175.999 262.442Z" fill="white"/>
<path d="M225.045 55.934C215.579 50.7712 205.254 47.3293 194.068 44.7479C193.207 54.213 184.603 61.9572 175.138 61.9572C164.812 61.9572 157.068 54.213 156.207 44.7479C145.021 47.3293 134.696 50.7712 125.231 55.934C131.254 78.3061 151.045 94.6549 175.138 94.6549C199.231 94.6549 219.882 78.3061 225.045 55.934Z" fill="url(#paint1_linear_1_2)"/>
<path d="M261.188 145.42C261.188 135.955 268.932 127.351 278.397 126.49C275.816 115.304 272.374 104.979 267.211 95.5135C245.699 101.537 229.351 121.327 229.351 144.56C229.351 168.653 246.56 189.304 268.932 194.467C274.095 185.002 277.537 174.676 279.258 163.49C268.932 163.49 261.188 155.746 261.188 145.42Z" fill="url(#paint2_linear_1_2)"/>
<path d="M122.649 145.42C122.649 122.188 106.3 102.397 84.7888 96.3737C79.626 105.839 75.3237 116.164 73.6028 127.35C83.0679 128.211 90.8121 135.955 90.8121 146.281C90.8121 156.606 83.0679 164.35 73.6028 165.211C75.3237 176.397 78.7655 186.723 83.9283 196.188C105.44 190.164 122.649 170.374 122.649 145.42Z" fill="url(#paint3_linear_1_2)"/>
<path d="M126.093 239.209C135.559 244.371 145.884 247.813 157.07 250.395C157.931 240.929 166.535 233.185 176 233.185C186.326 233.185 194.07 240.929 194.931 250.395C206.117 247.813 216.442 244.371 225.907 239.209C219.884 216.836 200.093 200.488 176 200.488C151.907 200.488 131.256 217.697 126.093 239.209Z" fill="url(#paint4_linear_1_2)"/>
<path d="M200.956 159.187L198.374 153.164L197.514 152.304H196.653C196.653 152.304 196.653 152.304 195.793 152.304C195.793 152.304 195.793 152.304 195.793 150.583V134.234C195.793 128.211 195.793 117.025 184.607 117.025C181.165 117.025 176.863 117.885 172.56 120.466V119.606V120.466H171.7L167.398 117.885H166.537H165.677L151.049 125.629L150.188 126.49L151.049 127.35L153.63 133.373L154.491 134.234L155.351 133.373L157.072 132.513C157.933 132.513 157.933 131.652 158.793 131.652V183.28V184.141H159.653H170.839H171.7V183.28V132.513C176.002 129.931 178.584 129.931 179.444 129.931C180.305 129.931 182.026 129.931 182.026 135.094V151.443C182.026 163.49 188.049 165.211 191.491 165.211C194.072 165.211 197.514 163.49 200.956 160.908V159.187Z" fill="url(#paint5_linear_1_2)"/>
<defs>
<linearGradient id="paint0_linear_1_2" x1="284.699" y1="246.148" x2="61.5358" y2="44.5695" gradientUnits="userSpaceOnUse">
<stop stop-color="#00DEE7"/>
<stop offset="0.0751114" stop-color="#05CCEC"/>
<stop offset="0.2244" stop-color="#139FFA"/>
<stop offset="0.2719" stop-color="#188FFF"/>
<stop offset="0.401" stop-color="#1D87FD"/>
<stop offset="0.5988" stop-color="#2C72F6"/>
<stop offset="0.8394" stop-color="#444FEA"/>
<stop offset="0.9605" stop-color="#523BE4"/>
</linearGradient>
<linearGradient id="paint1_linear_1_2" x1="222.224" y1="80.8986" x2="122.628" y2="52.863" gradientUnits="userSpaceOnUse">
<stop stop-color="#00DEE7"/>
<stop offset="0.0215771" stop-color="#02D7E9"/>
<stop offset="0.1529" stop-color="#0EB0F5"/>
<stop offset="0.2577" stop-color="#1598FC"/>
<stop offset="0.3223" stop-color="#188FFF"/>
<stop offset="0.4419" stop-color="#1D87FD"/>
<stop offset="0.6253" stop-color="#2C72F6"/>
<stop offset="0.8482" stop-color="#444FEA"/>
<stop offset="0.9605" stop-color="#523BE4"/>
</linearGradient>
<linearGradient id="paint2_linear_1_2" x1="300.628" y1="169.443" x2="236.182" y2="127.592" gradientUnits="userSpaceOnUse">
<stop offset="0.1199" stop-color="#00DEE7"/>
<stop offset="0.1691" stop-color="#07C5EE"/>
<stop offset="0.241" stop-color="#10A8F7"/>
<stop offset="0.3027" stop-color="#1695FD"/>
<stop offset="0.3469" stop-color="#188FFF"/>
<stop offset="0.6204" stop-color="#3368F2"/>
<stop offset="0.9022" stop-color="#523BE4"/>
</linearGradient>
<linearGradient id="paint3_linear_1_2" x1="112.97" y1="180.205" x2="68.8005" y2="108.755" gradientUnits="userSpaceOnUse">
<stop stop-color="#00DEE7"/>
<stop offset="0.0232223" stop-color="#02D7E9"/>
<stop offset="0.1645" stop-color="#0EB0F5"/>
<stop offset="0.2773" stop-color="#1598FC"/>
<stop offset="0.3469" stop-color="#188FFF"/>
<stop offset="0.6204" stop-color="#3368F2"/>
<stop offset="0.9022" stop-color="#523BE4"/>
</linearGradient>
<linearGradient id="paint4_linear_1_2" x1="228.767" y1="225.544" x2="128.182" y2="225.544" gradientUnits="userSpaceOnUse">
<stop stop-color="#00DEE7"/>
<stop offset="0.0232223" stop-color="#02D7E9"/>
<stop offset="0.1645" stop-color="#0EB0F5"/>
<stop offset="0.2773" stop-color="#1598FC"/>
<stop offset="0.3469" stop-color="#188FFF"/>
<stop offset="0.6204" stop-color="#3368F2"/>
<stop offset="0.9022" stop-color="#523BE4"/>
</linearGradient>
<linearGradient id="paint5_linear_1_2" x1="149.968" y1="150.775" x2="201.265" y2="150.775" gradientUnits="userSpaceOnUse">
<stop offset="0.3469" stop-color="#188FFF"/>
<stop offset="0.6204" stop-color="#3368F2"/>
<stop offset="0.9022" stop-color="#523BE4"/>
</linearGradient>
</defs>
</svg>
